<?xml version="1.0" encoding="UTF-8" standalone="no"?>
<svg
   id="emoji"
   viewBox="0 0 50 50"
   version="1.1"
   sodipodi:docname="purple.svg"
   inkscape:version="1.1.1 (3bf5ae0d25, 2021-09-20)"
   width="50"
   height="50"
   inkscape:export-filename="/media/large/3f-lab/_opensource/python/SimpleGame/images/bots/purple.png"
   inkscape:export-xdpi="96"
   inkscape:export-ydpi="96"
   xmlns:inkscape="http://www.inkscape.org/namespaces/inkscape"
   xmlns:sodipodi="http://sodipodi.sourceforge.net/DTD/sodipodi-0.dtd"
   xmlns="http://www.w3.org/2000/svg"
   xmlns:svg="http://www.w3.org/2000/svg">
  <defs
     id="defs976" />
  <sodipodi:namedview
     id="namedview974"
     pagecolor="#ffffff"
     bordercolor="#666666"
     borderopacity="1.0"
     inkscape:pageshadow="2"
     inkscape:pageopacity="0.0"
     inkscape:pagecheckerboard="0"
     showgrid="false"
     inkscape:zoom="11.81465"
     inkscape:cx="22.768343"
     inkscape:cy="14.558197"
     inkscape:window-width="1920"
     inkscape:window-height="1051"
     inkscape:window-x="0"
     inkscape:window-y="0"
     inkscape:window-maximized="1"
     inkscape:current-layer="emoji" />
  <g
     id="g1213"
     transform="matrix(0.92592593,0,0,0.92592593,-8.3333335,-7.8703705)"
     inkscape:export-filename="/home/mabel/alien.png"
     inkscape:export-xdpi="79.379997"
     inkscape:export-ydpi="79.379997"
     style="stroke:#c6afe9">
    <g
       id="color"
       style="stroke:#c6afe9">
      <polygon
         fill="#8967aa"
         points="56,38 59,38 59,35 62,35 62,20 56,20 56,24 56,25 49,25 49,20 45,20 45,14 39,14 39,20 32,20 32,14 26,14 26,20 22,20 22,25 16,25 16,20 10,20 10,21 10,35 13,35 13,38 16,38 16,45 22,45 22,51 27,51 28,51 28,45 44,45 44,51 50,51 50,45 56,45 "
         id="polygon917"
         style="stroke:#c6afe9" />
      <rect
         x="16"
         y="51"
         width="6"
         height="6"
         fill="#8967aa"
         id="rect919"
         style="stroke:#c6afe9" />
      <rect
         x="50"
         y="51"
         width="6"
         height="6"
         fill="#8967aa"
         id="rect921"
         style="stroke:#c6afe9" />
    </g>
    <g
       id="line"
       style="stroke:#c6afe9">
      <rect
         x="25.174999"
         y="31"
         width="3.5999999"
         height="6"
         stroke="#000000"
         stroke-linecap="round"
         stroke-linejoin="round"
         stroke-width="2"
         id="rect924"
         style="stroke:#c6afe9" />
      <polyline
         fill="none"
         stroke="#000000"
         stroke-linecap="round"
         stroke-linejoin="round"
         stroke-width="2"
         points="22,45 16,45 16,39"
         id="polyline926"
         style="stroke:#c6afe9" />
      <polyline
         fill="none"
         stroke="#000000"
         stroke-linecap="round"
         stroke-linejoin="round"
         stroke-width="2"
         points="22.583,25 22.583,20 26,20"
         id="polyline928"
         style="stroke:#c6afe9" />
      <polyline
         fill="none"
         stroke="#000000"
         stroke-linecap="round"
         stroke-linejoin="round"
         stroke-width="2"
         points="48.708,25 48.708,20 45.292,20"
         id="polyline930"
         style="stroke:#c6afe9" />
      <polyline
         fill="none"
         stroke="#000000"
         stroke-linecap="round"
         stroke-linejoin="round"
         stroke-width="2"
         points="13,35 10,35 10,20 16,20 16,35"
         id="polyline932"
         style="stroke:#c6afe9" />
      <polyline
         fill="none"
         stroke="#000000"
         stroke-linecap="round"
         stroke-linejoin="round"
         stroke-width="2"
         points="56,35 56,20 62,20 62,35 59,35"
         id="polyline934"
         style="stroke:#c6afe9" />
      <polyline
         fill="none"
         stroke="#000000"
         stroke-linecap="round"
         stroke-linejoin="round"
         stroke-width="2"
         points="26,20 26,14 32,14 32,20"
         id="polyline936"
         style="stroke:#c6afe9" />
      <polyline
         fill="none"
         stroke="#000000"
         stroke-linecap="round"
         stroke-linejoin="round"
         stroke-width="2"
         points="39,20 39,14 45,14 45,20"
         id="polyline938"
         style="stroke:#c6afe9" />
      <polyline
         fill="none"
         stroke="#000000"
         stroke-linecap="round"
         stroke-linejoin="round"
         stroke-width="2"
         points="16,35 19,35 19,38 13,38 13,35"
         id="polyline940"
         style="stroke:#c6afe9" />
      <polyline
         fill="none"
         stroke="#000000"
         stroke-linecap="round"
         stroke-linejoin="round"
         stroke-width="2"
         points="59,35 59,38 53,38 53,35 56,35"
         id="polyline942"
         style="stroke:#c6afe9" />
      <rect
         x="16"
         y="51"
         width="6"
         height="6"
         fill="none"
         stroke="#000000"
         stroke-linecap="round"
         stroke-linejoin="round"
         stroke-width="2"
         id="rect944"
         style="stroke:#c6afe9" />
      <rect
         x="50"
         y="51"
         width="6"
         height="6"
         fill="none"
         stroke="#000000"
         stroke-linecap="round"
         stroke-linejoin="round"
         stroke-width="2"
         id="rect946"
         style="stroke:#c6afe9" />
      <polyline
         fill="none"
         stroke="#000000"
         stroke-linecap="round"
         stroke-linejoin="round"
         stroke-width="2"
         points="28,45 28,51 22,51 22,45"
         id="polyline948"
         style="stroke:#c6afe9" />
      <polyline
         fill="none"
         stroke="#000000"
         stroke-linecap="round"
         stroke-linejoin="round"
         stroke-width="2"
         points="50,45 56,45 56,39"
         id="polyline950"
         style="stroke:#c6afe9" />
      <polyline
         fill="none"
         stroke="#000000"
         stroke-linecap="round"
         stroke-linejoin="round"
         stroke-width="2"
         points="44,45 44,51 50,51 50,45"
         id="polyline952"
         style="stroke:#c6afe9" />
      <rect
         x="43.424999"
         y="31"
         width="3.5999999"
         height="6"
         stroke="#000000"
         stroke-linecap="round"
         stroke-linejoin="round"
         stroke-width="2"
         id="rect954"
         style="stroke:#c6afe9" />
      <path
         fill="none"
         stroke="#000000"
         stroke-linecap="round"
         stroke-linejoin="round"
         stroke-width="2"
         d="M 44,45 Z"
         id="path956"
         style="stroke:#c6afe9" />
      <path
         fill="none"
         stroke="#000000"
         stroke-linecap="round"
         stroke-linejoin="round"
         stroke-width="2"
         d="M 39,20 Z"
         id="path958"
         style="stroke:#c6afe9" />
      <path
         fill="none"
         stroke="#000000"
         stroke-linecap="round"
         stroke-linejoin="round"
         stroke-width="2"
         d="M 16,25 Z"
         id="path960"
         style="stroke:#c6afe9" />
      <path
         fill="none"
         stroke="#000000"
         stroke-linecap="round"
         stroke-linejoin="round"
         stroke-width="2"
         d="M 49,25 Z"
         id="path962"
         style="stroke:#c6afe9" />
      <line
         x1="28"
         x2="44"
         y1="45"
         y2="45"
         fill="none"
         stroke="#000000"
         stroke-linecap="round"
         stroke-linejoin="round"
         stroke-width="2"
         id="line964"
         style="stroke:#c6afe9" />
      <line
         x1="32"
         x2="39"
         y1="20"
         y2="20"
         fill="none"
         stroke="#000000"
         stroke-linecap="round"
         stroke-linejoin="round"
         stroke-width="2"
         id="line966"
         style="stroke:#c6afe9" />
      <line
         x1="16"
         x2="22"
         y1="25"
         y2="25"
         fill="none"
         stroke="#000000"
         stroke-linecap="round"
         stroke-linejoin="round"
         stroke-width="2"
         id="line968"
         style="stroke:#c6afe9" />
      <line
         x1="49"
         x2="56"
         y1="25"
         y2="25"
         fill="none"
         stroke="#000000"
         stroke-linecap="round"
         stroke-linejoin="round"
         stroke-width="2"
         id="line970"
         style="stroke:#c6afe9" />
    </g>
  </g>
</svg>
